<svg aria-hidden="true" style="position: absolute; width: 0; height: 0; overflow: hidden;" version="1.1" xmlns="http://www.w3.org/2000/svg" xmlns:xlink="http://www.w3.org/1999/xlink">
<defs>
<symbol id="icon-moto" viewBox="0 0 77 32">
<path fill="none" stroke="#eb601d" style="stroke: var(--color1, #eb601d)" stroke-linejoin="miter" stroke-linecap="butt" stroke-miterlimit="10" stroke-width="1.3333" d="M4.693 20.608c1.268-3.472 5.429-6.018 10.365-6.018 5.944 0 10.763 3.692 10.763 8.246s-4.819 8.246-10.763 8.246c-5.431 0-9.924-3.082-10.659-7.089"></path>
<path fill="none" stroke="#eb601d" style="stroke: var(--color1, #eb601d)" stroke-linejoin="miter" stroke-linecap="butt" stroke-miterlimit="10" stroke-width="1.3333" d="M65.981 30.237c5.639 0 10.211-3.503 10.211-7.823s-4.571-7.823-10.211-7.823c-5.639 0-10.211 3.503-10.211 7.823s4.571 7.823 10.211 7.823z"></path>
<path fill="none" stroke="#eb601d" style="stroke: var(--color1, #eb601d)" stroke-linejoin="miter" stroke-linecap="butt" stroke-miterlimit="10" stroke-width="1.3333" d="M16.837 9.346l15.276 1.424"></path>
<path fill="none" stroke="#eb601d" style="stroke: var(--color1, #eb601d)" stroke-linejoin="miter" stroke-linecap="butt" stroke-miterlimit="10" stroke-width="1.3333" d="M18.695 14.59l5.779-4.531"></path>
<path fill="none" stroke="#eb601d" style="stroke: var(--color1, #eb601d)" stroke-linejoin="miter" stroke-linecap="butt" stroke-miterlimit="10" stroke-width="1.3333" d="M14.816 22.413l3.879-7.823"></path>
<path fill="none" stroke="#eb601d" style="stroke: var(--color1, #eb601d)" stroke-linejoin="miter" stroke-linecap="butt" stroke-miterlimit="10" stroke-width="1.3333" d="M65.981 23.218l-13.177-19.63-4.041-2.291-5.011 1.238"></path>
<path fill="none" stroke="#eb601d" style="stroke: var(--color1, #eb601d)" stroke-linejoin="miter" stroke-linecap="butt" stroke-miterlimit="10" stroke-width="1.3333" d="M50.541 17.645c0 0 2.749 0 2.021 2.353-0.518 1.678-1.982 5.119-2.781 6.956-0.316 0.728-1.204 1.219-2.207 1.219h-16.55c-0.404 0-0.808-0.037-1.2-0.112l-11.209-2.118"></path>
<path fill="none" stroke="#eb601d" style="stroke: var(--color1, #eb601d)" stroke-linejoin="miter" stroke-linecap="butt" stroke-miterlimit="10" stroke-width="1.3333" d="M26.373 14.566l4.883-1.543c0.474-0.144 0.986 0.124 0.986 0.515l-0.696 3.902c0 0.448-0.658 0.71-1.134 0.452l-4.203-2.259c-0.518-0.279-0.424-0.887 0.164-1.065v-0.002z"></path>
<path fill="none" stroke="#eb601d" style="stroke: var(--color1, #eb601d)" stroke-linejoin="miter" stroke-linecap="butt" stroke-miterlimit="10" stroke-width="1.3333" d="M46.16 23.675l3.309-8.187c0.214-0.538-0.31-1.082-1.044-1.082h-8.8c-0.752 0-1.416 0.374-1.64 0.924l-2.071 5.006-2.711-0.024c-0.778-0.008-1.476 0.362-1.744 0.923l-0.984 2.057c-0.308 0.644 0.312 1.327 1.208 1.33l12.731 0.040c0.802 0.003 1.51-0.397 1.744-0.984l0.002-0.003z"></path>
<path fill="none" stroke="#eb601d" style="stroke: var(--color1, #eb601d)" stroke-linejoin="miter" stroke-linecap="butt" stroke-miterlimit="10" stroke-width="1.3333" d="M35.913 20.335h11.501"></path>
<path fill="none" stroke="#eb601d" style="stroke: var(--color1, #eb601d)" stroke-linejoin="miter" stroke-linecap="butt" stroke-miterlimit="10" stroke-width="1.3333" d="M35.113 11.224c0.316 0.12 0.668 0.175 1.020 0.17l12.385-0.215c0 0 4.133 0 3.119-3.945s-7.47-1.945-7.47-1.945l-8.75 2.235c-0.97 0.248-1.724 0.865-1.91 1.634-0.166 0.684 0.078 1.487 1.608 2.066h-0.002z"></path>
<path fill="none" stroke="#eb601d" style="stroke: var(--color1, #eb601d)" stroke-linejoin="miter" stroke-linecap="butt" stroke-miterlimit="10" stroke-width="1.3333" d="M2.533 20.797l-0.824 1.661c-0.152 0.307 0.049 0.65 0.45 0.767l14.58 4.246c0.401 0.117 0.849-0.038 1.001-0.345l0.824-1.661c0.152-0.307-0.049-0.651-0.45-0.767l-14.58-4.246c-0.401-0.117-0.849 0.038-1.001 0.345z"></path>
<path fill="none" stroke="#eb601d" style="stroke: var(--color1, #eb601d)" stroke-linejoin="miter" stroke-linecap="butt" stroke-miterlimit="10" stroke-width="1.3333" d="M0.667 21.213l1.454 0.413"></path>
<path fill="none" stroke="#eb601d" style="stroke: var(--color1, #eb601d)" stroke-linejoin="miter" stroke-linecap="butt" stroke-miterlimit="10" stroke-width="1.3333" d="M57.365 0.725v4.057"></path>
</symbol>
<symbol id="icon-location" viewBox="0 0 29 32">
<path fill="none" stroke="#eb601d" style="stroke: var(--color1, #eb601d)" stroke-linejoin="round" stroke-linecap="round" stroke-miterlimit="4" stroke-width="1.3061" d="M14.217 0.861c-7.489 0-13.564 4.441-13.564 9.912 0 6.294 9.043 16.269 12.363 19.714 0.138 0.145 0.319 0.264 0.527 0.345s0.44 0.124 0.674 0.124c0.234 0 0.465-0.043 0.674-0.124s0.389-0.2 0.527-0.345c3.32-3.444 12.363-13.415 12.363-19.714 0-5.47-6.076-9.912-13.564-9.912z"></path>
<path fill="none" stroke="#eb601d" style="stroke: var(--color1, #eb601d)" stroke-linejoin="round" stroke-linecap="round" stroke-miterlimit="4" stroke-width="1.3061" d="M14.217 14.752c2.497 0 4.521-1.555 4.521-3.473s-2.024-3.473-4.521-3.473-4.521 1.555-4.521 3.473c0 1.918 2.024 3.473 4.521 3.473z"></path>
</symbol>
<symbol id="icon-play" viewBox="0 0 37 32">
<path fill="none" stroke="#fff" style="stroke: var(--color2, #fff)" stroke-linejoin="round" stroke-linecap="round" stroke-miterlimit="4" stroke-width="1.4222" d="M4.858 16.030v-10.976c0-3.149 4.14-4.991 7.144-3.179l18.193 10.976c2.566 1.548 2.566 4.81 0 6.358l-18.193 10.976c-3.004 1.812-7.144-0.030-7.144-3.179v-10.976z"></path>
</symbol>
<symbol id="icon-helmet" viewBox="0 0 30 32">
<path fill="#d3591f" style="fill: var(--color3, #d3591f)" d="M21.878 32c-0.114 0-0.225-0.039-0.313-0.11-0.125-0.1-3.079-2.445-6.806-4.081-4.606-2.022-9.965-2.079-10.018-2.079-0.164 0-0.318-0.083-0.41-0.22-1.515-2.246-3.382-5.182-3.657-6.067-0.069-0.23-0.674-2.338-0.674-4.457 0-8.262 6.726-14.986 14.993-14.986 10.811 0 14.080 10.412 14.983 14.889 0.666 3.297 0.199 7.047-0.109 9.527-0.264 2.128-0.563 3.132-1.234 4.135-1.409 2.111-6.107 3.306-6.639 3.435-0.039 0.009-0.079 0.015-0.118 0.015l0.001-0.001zM14.993 0.999c-7.716 0-13.993 6.275-13.993 13.988 0 2.009 0.604 4.074 0.629 4.162 0.249 0.786 2.204 3.821 3.322 5.493 0.040 0.061 0.107 0.098 0.179 0.1 1.305 0.045 5.883 0.333 10.031 2.154 3.196 1.403 5.782 3.261 6.744 3.994 0.039 0.030 0.088 0.046 0.136 0.046 0.019 0 0.039-0.002 0.058-0.008 0.488-0.133 1.761-0.501 3.051-1.081 1.343-0.603 2.235-1.224 2.652-1.849 0.577-0.864 0.828-1.73 1.073-3.703 0.3-2.418 0.755-6.070 0.121-9.208-2.473-12.257-9.835-14.087-14.004-14.087z"></path>
<path fill="#d3591f" style="fill: var(--color3, #d3591f)" d="M26.304 11.869c-0.206 0-0.394-0.129-0.467-0.322-2.138-5.622-5.787-8.473-10.843-8.473-0.276 0-0.499-0.224-0.499-0.499s0.224-0.499 0.499-0.499c5.436 0 9.51 3.152 11.778 9.117 0.098 0.257-0.032 0.546-0.289 0.644-0.057 0.021-0.117 0.033-0.178 0.033l-0.001-0.001z"></path>
<path fill="#d3591f" style="fill: var(--color3, #d3591f)" d="M27.089 14.333c-0.227 0-0.425-0.154-0.482-0.373-0.038-0.147-0.079-0.296-0.121-0.446-0.036-0.128-0.020-0.263 0.045-0.38s0.172-0.2 0.3-0.236c0.045-0.012 0.091-0.019 0.136-0.019 0.222 0 0.419 0.151 0.48 0.365 0.044 0.156 0.085 0.31 0.126 0.463 0.070 0.266-0.090 0.54-0.356 0.609-0.042 0.010-0.084 0.016-0.127 0.016v0.001z"></path>
<path fill="#d3591f" style="fill: var(--color3, #d3591f)" d="M29.8 20.101c-12.070 0-18.284-2.439-18.542-2.543-0.191-0.076-0.317-0.266-0.314-0.473l0.087-4.666c0.003-0.163 0.085-0.314 0.22-0.405 0.089-0.060 2.24-1.488 7.865-3.487 2.339-0.83 5.009-1.47 6.836-1.862 0.037-0.008 0.073-0.012 0.108-0.012 0.232 0 0.436 0.166 0.486 0.396 0.028 0.13 0.003 0.264-0.070 0.377-0.072 0.112-0.184 0.189-0.315 0.217-1.474 0.316-4.306 0.972-6.712 1.827-4.295 1.526-6.547 2.729-7.317 3.176-0.068 0.039-0.11 0.111-0.112 0.19l-0.070 3.748c-0.002 0.098 0.061 0.187 0.154 0.217 1.617 0.54 7.671 2.302 17.693 2.302 0.276 0 0.499 0.224 0.499 0.499s-0.224 0.499-0.499 0.499l0.001 0.001z"></path>
</symbol>
<symbol id="icon-cup" viewBox="0 0 41 32">
<path fill="none" stroke="#eb601d" style="stroke: var(--color1, #eb601d)" stroke-linejoin="miter" stroke-linecap="round" stroke-miterlimit="4" stroke-width="1.3061" d="M20.245 21.744v4.606"></path>
<path fill="none" stroke="#eb601d" style="stroke: var(--color1, #eb601d)" stroke-linejoin="round" stroke-linecap="round" stroke-miterlimit="4" stroke-width="1.3061" d="M27.042 30.957h-13.594l0.66-2.5c0.088-0.334 0.326-0.635 0.673-0.851s0.782-0.334 1.231-0.334h8.467c0.449 0 0.884 0.118 1.231 0.334s0.585 0.517 0.673 0.851l0.66 2.5z"></path>
<path fill="none" stroke="#eb601d" style="stroke: var(--color1, #eb601d)" stroke-linejoin="miter" stroke-linecap="butt" stroke-miterlimit="4" stroke-width="1.3061" d="M33.959 5.468l1.859 0.466c1.94 0.486 2.909 0.73 3.464 1.309s0.554 1.349 0.554 2.886v0.108c0 1.268 0 1.903-0.406 2.422s-1.144 0.827-2.617 1.445l-5.793 2.42M6.531 5.468l-1.859 0.466c-1.94 0.486-2.909 0.73-3.464 1.309s-0.554 1.35-0.554 2.886v0.108c0 1.268 0 1.903 0.406 2.422s1.144 0.827 2.617 1.445l5.793 2.42M18.572 6.976c0.744-1.007 1.117-1.508 1.673-1.508s0.929 0.501 1.673 1.508l0.192 0.259c0.212 0.286 0.317 0.428 0.482 0.522 0.167 0.094 0.372 0.13 0.784 0.199l0.372 0.065c1.446 0.246 2.169 0.369 2.341 0.784 0.172 0.417-0.321 0.851-1.307 1.717l-0.255 0.224c-0.28 0.246-0.421 0.369-0.484 0.522s-0.041 0.317 0 0.646l0.039 0.299c0.149 1.157 0.223 1.736-0.225 1.993-0.451 0.257-1.128 0.022-2.482-0.447l-0.349-0.121c-0.386-0.133-0.578-0.199-0.782-0.199s-0.396 0.066-0.782 0.199l-0.349 0.121c-1.354 0.47-2.032 0.703-2.482 0.447s-0.374-0.836-0.225-1.993l0.039-0.299c0.041-0.329 0.063-0.492 0-0.646-0.063-0.152-0.204-0.276-0.484-0.522l-0.255-0.224c-0.985-0.867-1.479-1.3-1.307-1.717 0.172-0.416 0.895-0.538 2.341-0.784l0.372-0.065c0.411-0.069 0.617-0.103 0.784-0.199 0.165-0.094 0.27-0.236 0.482-0.522l0.192-0.259z"></path>
<path fill="none" stroke="#eb601d" style="stroke: var(--color1, #eb601d)" stroke-linejoin="miter" stroke-linecap="round" stroke-miterlimit="4" stroke-width="1.3061" d="M31.918 30.957h-23.346M29.973 1.548c1.442 0.212 2.298 0.447 3.035 1.151 0.928 0.882 0.879 1.834 0.78 3.739-0.35 6.851-2.335 15.49-13.541 15.49s-13.193-8.637-13.547-15.49c-0.097-1.905-0.146-2.859 0.778-3.739 0.926-0.882 2.033-1.026 4.249-1.315 2.815-0.357 5.665-0.532 8.517-0.522 1.397 0 2.697 0.038 3.891 0.102"></path>
</symbol>
<symbol id="icon-logo" viewBox="">
<path fill="#100c08" style="fill: var(--color4, #100c08)" d="M42.198 10.079h-8.96c0.056-0.96 0.849-1.717 1.823-1.717v-4.007c-8.275-0.289-12.149-2.991-13.933-4.355-1.784 1.366-5.668 4.065-13.944 4.355v4.007c0.974 0 1.767 0.76 1.823 1.717h-9.007v11.075h8.373c0 0.353-0.186 1.402-2.438 1.653 1.542 1.416 10.527 9.041 15.193 9.041s13.674-7.624 15.215-9.041c-2.104-0.228-2.438-1.152-2.438-1.653h8.289v-11.075h0.003z"></path>
<path fill="#eb601d" style="fill: var(--color1, #eb601d)" d="M41.302 20.224h-40.364v-9.080h40.364v9.080z"></path>
<path fill="#100c08" style="fill: var(--color4, #100c08)" d="M1.876 11.976v7.31h38.508v-7.31h-38.508z"></path>
<path fill="#fff" style="fill: var(--color2, #fff)" d="M4.519 15.015h-0.671v-2.276h-0.846v5.696h0.846v-2.446h0.671v2.446h0.849v-5.696h-0.849v2.276z"></path>
<path fill="#fff" style="fill: var(--color2, #fff)" d="M6.278 12.739l-0.648 5.693h0.768l0.173-1.48h0.621l0.15 1.48h0.857l-0.648-5.693h-1.272zM6.673 15.989l0.198-2.212h0.056l0.164 2.212h-0.417z"></path>
<path fill="#fff" style="fill: var(--color2, #fff)" d="M9.909 12.739h-1.4v5.693h0.849v-2.357c0.54 0 0.687 0.109 0.687 0.454v1.906h0.849v-2.259c-0.011-0.387-0.337-0.604-0.381-0.654 0.303-0.242 0.381-0.573 0.381-0.996v-0.807c0-0.735-0.301-0.977-0.982-0.977l-0.003-0.003zM10.012 14.731c0 0.209-0.064 0.462-0.359 0.462h-0.295v-1.67h0.337c0.192 0 0.32 0.136 0.32 0.353v0.854h-0.003z"></path>
<path fill="#fff" style="fill: var(--color2, #fff)" d="M12.23 12.739h-0.849v5.696h1.709v-0.902h-0.86v-4.794z"></path>
<path fill="#fff" style="fill: var(--color2, #fff)" d="M14.222 15.919h0.865v-0.899h-0.865v-1.391h0.904v-0.89h-1.75v5.696h1.767v-0.902h-0.921v-1.614z"></path>
<path fill="#fff" style="fill: var(--color2, #fff)" d="M17.188 12.739l-0.47 1.99-0.456-1.99h-0.871l0.871 3.567v2.129h0.849v-2.168l0.871-3.528h-0.793z"></path>
<path fill="#fff" style="fill: var(--color2, #fff)" d="M19.272 15.204h-1.553v0.718h1.553v-0.718z"></path>
<path fill="#fff" style="fill: var(--color2, #fff)" d="M20.75 12.739h-1.024v5.693h1.208c0.657 0 1.007-0.487 1.007-1.032v-3.375c0-0.999-0.351-1.288-1.191-1.288v0.003zM21.095 17.11c0 0.367-0.103 0.423-0.32 0.423h-0.2v-3.898h0.2c0.217 0 0.32 0.056 0.32 0.423v3.053z"></path>
<path fill="#fff" style="fill: var(--color2, #fff)" d="M22.815 12.739l-0.648 5.693h0.768l0.173-1.48h0.62l0.15 1.48h0.857l-0.648-5.693h-1.272zM23.21 15.989l0.198-2.212h0.056l0.164 2.212h-0.417z"></path>
<path fill="#fff" style="fill: var(--color2, #fff)" d="M25.745 16.164l-0.412-3.425h-0.865l0.796 5.696h0.949l0.796-5.696h-0.854l-0.409 3.425z"></path>
<path fill="#fff" style="fill: var(--color2, #fff)" d="M28.096 12.739h-0.849v5.693h0.849v-5.693z"></path>
<path fill="#fff" style="fill: var(--color2, #fff)" d="M29.624 12.739h-1.024v5.693h1.208c0.657 0 1.007-0.487 1.007-1.032v-3.375c0-0.999-0.351-1.288-1.191-1.288v0.003zM29.969 17.11c0 0.367-0.103 0.423-0.32 0.423h-0.2v-3.898h0.2c0.217 0 0.32 0.056 0.32 0.423v3.053z"></path>
<path fill="#fff" style="fill: var(--color2, #fff)" d="M32.378 12.627c-0.52 0-1.177 0.217-1.177 0.96v1.222c0 0.927 1.514 1.149 1.514 1.948v0.601c0 0.287-0.161 0.351-0.328 0.351s-0.326-0.064-0.326-0.351v-1.010h-0.849v1.238c0 0.743 0.646 0.96 1.166 0.96s1.185-0.217 1.185-0.96v-1.372c0-0.576-1.514-1.297-1.514-1.706v-0.632c0-0.287 0.161-0.351 0.337-0.351s0.339 0.064 0.339 0.351v0.796h0.849v-1.085c0-0.743-0.668-0.96-1.194-0.96h-0.003z"></path>
<path fill="#fff" style="fill: var(--color2, #fff)" d="M35.125 12.627c-0.52 0-1.188 0.217-1.188 0.96v3.999c0 0.743 0.668 0.96 1.188 0.96s1.202-0.217 1.202-0.96v-3.999c0-0.743-0.685-0.96-1.202-0.96zM35.481 17.244c0 0.287-0.173 0.351-0.348 0.351s-0.348-0.064-0.348-0.351v-3.345c0-0.287 0.173-0.351 0.348-0.351s0.348 0.064 0.348 0.351v3.345z"></path>
<path fill="#fff" style="fill: var(--color2, #fff)" d="M38.375 12.739v2.897l-0.554-2.897h-1.146v5.696h0.851v-3.242l0.673 3.242h1.038v-5.696h-0.863z"></path>
<path fill="#100c08" style="fill: var(--color4, #100c08)" d="M37.443 22.973c-0.097 0-0.189-0.017-0.27-0.053-0.083-0.033-0.153-0.081-0.214-0.142s-0.106-0.131-0.139-0.214c-0.033-0.083-0.050-0.17-0.050-0.267s0.017-0.186 0.053-0.27c0.033-0.083 0.083-0.153 0.145-0.214s0.134-0.106 0.214-0.142c0.081-0.036 0.17-0.050 0.264-0.050s0.184 0.017 0.267 0.053c0.081 0.036 0.153 0.083 0.214 0.145s0.109 0.134 0.142 0.214c0.033 0.081 0.050 0.17 0.050 0.262s-0.017 0.184-0.053 0.267c-0.033 0.081-0.081 0.153-0.142 0.214s-0.131 0.109-0.214 0.142c-0.081 0.033-0.17 0.053-0.267 0.053v0.003zM37.443 22.901c0.083 0 0.164-0.014 0.237-0.047 0.072-0.031 0.136-0.072 0.189-0.128s0.097-0.12 0.128-0.192c0.031-0.072 0.047-0.15 0.047-0.234s-0.014-0.159-0.045-0.231c-0.031-0.072-0.072-0.136-0.125-0.192s-0.117-0.1-0.189-0.131c-0.072-0.031-0.153-0.047-0.239-0.047s-0.164 0.014-0.239 0.045c-0.072 0.031-0.136 0.072-0.189 0.128s-0.097 0.12-0.125 0.192c-0.028 0.072-0.045 0.153-0.045 0.239s0.014 0.159 0.045 0.231c0.031 0.072 0.070 0.136 0.125 0.192 0.053 0.056 0.117 0.1 0.189 0.131s0.153 0.047 0.242 0.047l-0.006-0.003zM37.206 22.698v-0.796h0.228c0.086 0 0.153 0.019 0.2 0.056s0.070 0.095 0.070 0.173c0 0.058-0.017 0.106-0.047 0.142s-0.067 0.061-0.111 0.075l0.211 0.351h-0.109l-0.192-0.328h-0.161v0.328h-0.089zM37.298 22.291h0.128c0.056 0 0.1-0.014 0.136-0.042s0.053-0.067 0.053-0.117c0-0.050-0.017-0.092-0.050-0.117-0.033-0.022-0.078-0.036-0.136-0.036h-0.131v0.312z"></path>
<path fill="#eb601d" style="fill: var(--color1, #eb601d)" d="M8.1 7.677v-2.499c7.491-0.39 11.186-2.635 13.028-4.018 1.976 1.4 5.526 3.629 13.017 4.018v2.499h-0.003c-1.018 0.367-1.756 1.263-1.789 2.401h-0.899c0.028-1.288 0.732-2.346 1.773-2.961v-1.133c-6.047-0.426-9.995-2.301-12.099-3.748-1.837 1.35-5.529 3.155-12.11 3.748v1.133c1.038 0.615 1.742 1.672 1.773 2.961h-0.899c-0.033-1.138-0.776-2.034-1.795-2.401h0.003z"></path>
<path fill="#eb601d" style="fill: var(--color1, #eb601d)" d="M34.262 23.182c-2.457 2.499-9.884 7.705-13.134 7.705s-10.652-5.206-13.109-7.705c1.272-0.562 1.478-1.383 1.561-2.029h1.021c-0.061 0.604-0.186 1.569-1.021 2.151 0.957 0.915 8.131 6.664 11.548 6.664s10.613-5.749 11.57-6.664c-0.832-0.584-0.957-1.547-1.021-2.151h1.021c0.083 0.646 0.292 1.464 1.561 2.029h0.003z"></path>
<path fill="#eb601d" style="fill: var(--color1, #eb601d)" d="M28.285 8.915h0.938c0.136 0 0.437 0.114 0.437 0.365v0.799h0.979v-1.018c0-0.167-0.198-0.448-0.342-0.531 0.312-0.156 0.342-0.376 0.342-0.626v-0.698c0-0.646-0.646-0.865-0.979-0.938l-2.354-0.49v4.299h0.98v-1.16zM28.285 6.937l1.166 0.239c0.209 0.042 0.209 0.239 0.209 0.417s-0.031 0.345-0.22 0.345h-1.155v-1.002z"></path>
<path fill="#eb601d" style="fill: var(--color1, #eb601d)" d="M24.161 10.079h1.28c0.854 0 1.041-0.632 1.032-0.957v-2.624c0.011-0.626-0.178-0.991-0.593-1.155l-1.709-0.657c-0.52-0.186-0.991 0.103-0.991 0.562v3.832c0 0.771 0.551 0.996 0.979 0.996v0.003zM24.161 6.091c0-0.228 0.167-0.292 0.312-0.228l0.79 0.312c0.209 0.103 0.228 0.25 0.228 0.479v2.123c0 0.186-0.083 0.303-0.312 0.303h-0.718c-0.22 0-0.303-0.145-0.303-0.323v-2.666h0.003z"></path>
<path fill="#eb601d" style="fill: var(--color1, #eb601d)" d="M20.641 10.079h1.060v-5.423l1.291 0.698v-1.082l-1.864-1.021-1.778 0.968v1.082l1.291-0.707v5.485z"></path>
<path fill="#eb601d" style="fill: var(--color1, #eb601d)" d="M16.966 10.079h1.28c0.426 0 0.979-0.228 0.979-0.996v-3.832c0-0.459-0.467-0.749-0.991-0.562l-1.709 0.657c-0.417 0.167-0.604 0.531-0.593 1.155v2.624c-0.011 0.323 0.178 0.957 1.032 0.957v-0.003zM16.913 6.656c0-0.228 0.019-0.376 0.228-0.479l0.79-0.312c0.145-0.061 0.312 0 0.312 0.228v2.666c0 0.178-0.083 0.323-0.303 0.323h-0.718c-0.228 0-0.312-0.114-0.312-0.303v-2.123h0.003z"></path>
<path fill="#eb601d" style="fill: var(--color1, #eb601d)" d="M14.372 10.079h0.977v-4.371l-0.915 0.239-0.854 1.99-0.771-1.645-0.977 0.175v3.612h0.977v-1.714l0.801 1.714 0.762-1.778v1.778z"></path>
<path fill="#eb601d" style="fill: var(--color1, #eb601d)" d="M12.861 23.763c0.056 0.036 2.254 1.75 2.254 1.75v1.043c0 0-3.094-2.31-3.186-2.365-0.111-0.075-0.262-0.337-0.298-0.52-0.036-0.186 0-1.678 0-1.845s0.186-0.671 0.448-0.671h2.404v0.988h-1.436c-0.223-0.019-0.353 0.056-0.353 0.262v1.099c0 0.075 0.092 0.223 0.167 0.262v-0.003z"></path>
<path fill="#eb601d" style="fill: var(--color1, #eb601d)" d="M15.059 21.156h1.007l0.54 1.678 0.877-1.678h0.952l-1.361 2.944v3.523c0 0.167-0.949-0.353-0.968-0.484-0.036-0.131 0-3.075 0-3.075l-1.043-2.908h-0.003z"></path>
<path fill="#eb601d" style="fill: var(--color1, #eb601d)" d="M19.756 27.542c0.056 0.111 1.286 0.69 1.286 0.69v1.155c0 0-1.976-0.838-2.162-1.024-0.206-0.206-0.223-0.429-0.223-0.52v-5.852c0-0.353 0.707-0.835 0.877-0.835h1.453v1.060c0 0.036-0.838 0.036-1.043 0-0.111-0.019-0.262 0.131-0.262 0.651v4.324c0 0.092 0 0.262 0.075 0.353v-0.003z"></path>
<path fill="#eb601d" style="fill: var(--color1, #eb601d)" d="M23.95 27.264v1.007c0 0-1.639 0.726-1.901 0.857-0.15 0.075-0.317-0.056-0.317-0.278v-7.691h1.119v6.556l1.099-0.448v-0.003z"></path>
<path fill="#eb601d" style="fill: var(--color1, #eb601d)" d="M26.351 23.725v0.857h-1.043v2.067l1.266-0.595v0.913l-1.678 0.838c-0.206 0.092-0.465 0-0.465-0.186v-6.094c0-0.242 0.206-0.373 0.373-0.373h1.956v1.063h-1.453v1.508h1.043v0.003z"></path>
<path fill="#eb601d" style="fill: var(--color1, #eb601d)" d="M29.574 23.797c0 0-1.639 0.036-1.937 0-0.278-0.036-0.392-0.092-0.392-0.298 0-0.186-0.019-1.416 0-1.77 0.036-0.353 0.595-0.537 0.857-0.573 0.242-0.019 2.46 0 2.46 0v0.966h-2.365c-0.092 0-0.075 0.801 0 0.801h2.123c0.298 0 0.262 0.075 0.262 0.206v1.194c0 0.131-0.186 0.278-0.262 0.353-0.056 0.056-3.167 1.937-3.167 1.937v-0.838c0 0 2.479-1.564 2.496-1.678 0.036-0.167-0.075-0.298-0.075-0.298v-0.003z"></path>
<path fill="#fff" style="fill: var(--color2, #fff)" d="M91.968 16.050l0.671-2.947-1.614-0.49-0.554 2.429h0.604l-0.228 1.007h-2.457l1.177-5.17 4.207 1.327 4.803-1.327-1.177 5.17h-2.457l0.228-1.007h0.604l0.554-2.429-1.837 0.49-0.671 2.947h-1.853z"></path>
<path fill="#fff" style="fill: var(--color2, #fff)" d="M100.95 13.574l0.339-1.486h3.67l-0.312 1.366 1.867-0.061 0.526-2.312h-7.377l-0.582 2.554 1.867-0.061z"></path>
<path fill="#fff" style="fill: var(--color2, #fff)" d="M104.551 13.888l-0.264 1.155h-3.67l0.289-1.277-1.837-0.061-0.534 2.346h7.377l0.479-2.101-1.839-0.061z"></path>
<path fill="#fff" style="fill: var(--color2, #fff)" d="M109.376 12.088h1.194l-0.27 1.18 1.867-0.061 0.256-1.119h1.191l-0.225 0.993 1.867-0.056 0.442-1.945h-7.947l-0.506 2.226 1.881-0.072 0.25-1.146z"></path>
<path fill="#fff" style="fill: var(--color2, #fff)" d="M110.116 14.072l-0.448 1.978h1.853l0.434-1.917-1.839-0.061z"></path>
<path fill="#fff" style="fill: var(--color2, #fff)" d="M117.818 13.023l0.211-0.935h3.673l-0.186 0.813 1.867-0.058 0.401-1.761h-7.377l-0.456 2.003 1.867-0.061z"></path>
<path fill="#fff" style="fill: var(--color2, #fff)" d="M121.166 14.442l-0.136 0.601h-3.67l0.164-0.723-1.839-0.061-0.409 1.792h7.379l0.351-1.547-1.839-0.061z"></path>
<path fill="#c00d0d" style="fill: var(--color5, #c00d0d)" d="M74.824 10.785l-1.085 4.672-3.89 0.693 3.272 4.143h-4.458l-2.716-3.45-2.226 0.395-0.71 3.055h-3.222l2.209-9.505 12.825-0.003zM71.154 12.714h-6.383l-0.557 2.39 6.659-1.183 0.281-1.208z"></path>
<path fill="#c00d0d" style="fill: var(--color5, #c00d0d)" d="M76.196 10.785h12.691l-0.768 3.3-3.097-0.543 0.192-0.829h-6.247l-0.301 1.291 9.088 1.645-1.080 4.644h-12.691l0.726-3.125 3.103 0.515-0.159 0.679h6.247l0.309-1.33-9.088-1.645 1.071-4.605 0.003 0.003z"></path>
<path fill="#fff" style="fill: var(--color2, #fff)" d="M88.097 17.389h5.137l-0.264 1.007-1.261-0.167 0.067-0.253h-2.529l-0.103 0.395 3.701 0.501-0.373 1.419h-5.137l0.25-0.954 1.263 0.159-0.056 0.209h2.529l0.106-0.406-3.701-0.501 0.37-1.405v-0.003z"></path>
<path fill="#fff" style="fill: var(--color2, #fff)" d="M98.641 19.222l-0.281 1.069h-5.192l0.762-2.902h5.192l-0.281 1.069-1.266-0.15 0.086-0.331h-2.582l-0.454 1.725h2.582l0.086-0.331 1.344-0.15 0.003 0.003z"></path>
<path fill="#fff" style="fill: var(--color2, #fff)" d="M104.245 20.291h-1.305l0.306-1.166h-2.579l-0.306 1.166h-1.305l0.762-2.902h1.305l-0.303 1.149h2.579l0.303-1.149h1.305l-0.762 2.902z"></path>
<path fill="#fff" style="fill: var(--color2, #fff)" d="M110.236 20.291h-5.192l0.762-2.902h5.192l-0.762 2.902zM109.54 17.976h-2.582l-0.454 1.725h2.582l0.454-1.725z"></path>
<path fill="#fff" style="fill: var(--color2, #fff)" d="M116.227 20.291h-5.192l0.762-2.902h5.192l-0.762 2.902zM115.531 17.976h-2.582l-0.454 1.725h2.582l0.454-1.725z"></path>
<path fill="#fff" style="fill: var(--color2, #fff)" d="M122.009 19.203l-0.287 1.091h-4.697l0.762-2.902h1.305l-0.609 2.315h2.090l0.092-0.353 1.344-0.15z"></path>
</symbol>
<symbol id="icon-instagram" viewBox="0 0 24 24">
<path d="M7 1c-1.657 0-3.158 0.673-4.243 1.757s-1.757 2.586-1.757 4.243v10c0 1.657 0.673 3.158 1.757 4.243s2.586 1.757 4.243 1.757h10c1.657 0 3.158-0.673 4.243-1.757s1.757-2.586 1.757-4.243v-10c0-1.657-0.673-3.158-1.757-4.243s-2.586-1.757-4.243-1.757zM7 3h10c1.105 0 2.103 0.447 2.828 1.172s1.172 1.723 1.172 2.828v10c0 1.105-0.447 2.103-1.172 2.828s-1.723 1.172-2.828 1.172h-10c-1.105 0-2.103-0.447-2.828-1.172s-1.172-1.723-1.172-2.828v-10c0-1.105 0.447-2.103 1.172-2.828s1.723-1.172 2.828-1.172zM16.989 11.223c-0.15-0.972-0.571-1.857-1.194-2.567-0.754-0.861-1.804-1.465-3.009-1.644-0.464-0.074-0.97-0.077-1.477-0.002-1.366 0.202-2.521 0.941-3.282 1.967s-1.133 2.347-0.93 3.712 0.941 2.521 1.967 3.282 2.347 1.133 3.712 0.93 2.521-0.941 3.282-1.967 1.133-2.347 0.93-3.712zM15.011 11.517c0.122 0.82-0.1 1.609-0.558 2.227s-1.15 1.059-1.969 1.18-1.609-0.1-2.227-0.558-1.059-1.15-1.18-1.969 0.1-1.609 0.558-2.227 1.15-1.059 1.969-1.18c0.313-0.046 0.615-0.042 0.87-0.002 0.74 0.11 1.366 0.47 1.818 0.986 0.375 0.428 0.63 0.963 0.72 1.543zM17.5 7.5c0.552 0 1-0.448 1-1s-0.448-1-1-1-1 0.448-1 1 0.448 1 1 1z"></path>
</symbol>
<symbol id="icon-youtube" viewBox="0 0 24 24">
<path d="M21.563 6.637c0.287 1.529 0.448 3.295 0.437 5.125 0.019 1.528-0.123 3.267-0.437 5.021-0.057 0.208-0.15 0.403-0.272 0.575-0.227 0.321-0.558 0.565-0.949 0.675-0.604 0.161-2.156 0.275-3.877 0.341-2.23 0.086-4.465 0.086-4.465 0.086s-2.235 0-4.465-0.085c-1.721-0.066-3.273-0.179-3.866-0.338-0.205-0.057-0.396-0.149-0.566-0.268-0.311-0.22-0.55-0.536-0.67-0.923-0.285-1.526-0.444-3.286-0.433-5.11-0.021-1.54 0.121-3.292 0.437-5.060 0.057-0.208 0.15-0.403 0.272-0.575 0.227-0.321 0.558-0.565 0.949-0.675 0.604-0.161 2.156-0.275 3.877-0.341 2.23-0.085 4.465-0.085 4.465-0.085s2.235 0 4.466 0.078c1.719 0.060 3.282 0.163 3.856 0.303 0.219 0.063 0.421 0.165 0.598 0.299 0.307 0.232 0.538 0.561 0.643 0.958zM23.51 6.177c-0.217-0.866-0.718-1.59-1.383-2.093-0.373-0.282-0.796-0.494-1.249-0.625-0.898-0.22-2.696-0.323-4.342-0.38-2.267-0.079-4.536-0.079-4.536-0.079s-2.272 0-4.541 0.087c-1.642 0.063-3.45 0.175-4.317 0.407-0.874 0.247-1.581 0.77-2.064 1.45-0.27 0.381-0.469 0.811-0.587 1.268-0.006 0.024-0.011 0.049-0.015 0.071-0.343 1.898-0.499 3.793-0.476 5.481-0.012 1.924 0.161 3.831 0.477 5.502 0.006 0.031 0.013 0.062 0.021 0.088 0.245 0.86 0.77 1.567 1.451 2.048 0.357 0.252 0.757 0.443 1.182 0.561 0.879 0.235 2.686 0.347 4.328 0.41 2.269 0.087 4.541 0.087 4.541 0.087s2.272 0 4.541-0.087c1.642-0.063 3.449-0.175 4.317-0.407 0.873-0.247 1.581-0.77 2.063-1.45 0.27-0.381 0.47-0.811 0.587-1.267 0.006-0.025 0.012-0.050 0.015-0.071 0.34-1.884 0.496-3.765 0.476-5.44 0.012-1.925-0.161-3.833-0.477-5.504-0.004-0.020-0.008-0.040-0.012-0.057zM10.75 13.301v-3.102l2.727 1.551zM10.244 15.889l5.75-3.27c0.48-0.273 0.648-0.884 0.375-1.364-0.093-0.164-0.226-0.292-0.375-0.375l-5.75-3.27c-0.48-0.273-1.091-0.105-1.364 0.375-0.090 0.158-0.132 0.33-0.131 0.494v6.54c0 0.552 0.448 1 1 1 0.182 0 0.352-0.049 0.494-0.131z"></path>
</symbol>
</defs>
</svg>
